<?xml version="1.0" encoding="utf-8"?>
<svg viewBox="0 0 500 126" xmlns="http://www.w3.org/2000/svg">
    <g transform="matrix(0.281694, 0, 0, 0.281694, -2.409247, 7.69973)" style="">
        <path
            d="m1264.51,15.93c-.65,1.32-1.24,2.67-1.97,3.95-41.51,72.53-83.03,145.04-124.54,217.56-.44.77-.86,1.56-1.46,2.67h125.14v37.04h-190.07c42.77-74.7,85.4-149.17,128.24-223.99h-107.26V15.93c57.31,0,114.62,0,171.94,0Z" />
        <path
            d="m738.42,365.87h-62.75V99.76h62.51v19.15c.68-.54,1.07-.75,1.34-1.07,14.24-16.93,32.78-24.36,54.5-23.67,37.86,1.19,65.21,19.54,80.2,53.84,15.11,34.57,11.99,68.66-10.46,99.57-17.21,23.71-41.3,35.22-70.7,35.18-20.73-.03-38.76-6.92-53.56-21.68-.23-.23-.5-.43-1.08-.92v105.7Zm78.98-176.83c.19-22.74-17.68-40.83-40.45-40.95-22.06-.12-40.14,17.94-40.37,40.31-.22,21.98,18.08,40.19,40.6,40.38,21.52.18,40.04-18.12,40.22-39.74Z" />
        <path
            d="m538.48,283.8c-20.72-.05-40.6-3.89-58.68-14.35-26.9-15.57-42.34-38.99-46.27-69.83-2.79-21.89,1.33-42.34,13.43-60.96,11.3-17.4,27.12-29.26,46.15-37.05,18.96-7.77,38.72-9.77,59.01-8.06,20.35,1.71,39.05,8.13,55.69,19.91,24.25,17.18,36.95,40.85,38.38,70.53,1.03,21.32-4.27,40.85-16.78,58.24-11.36,15.79-26.43,26.73-44.62,33.54-14.94,5.59-30.39,8.1-46.3,8.05Zm1.13-55.02c22.49-.02,40.69-18.38,40.56-40.9-.13-22.52-18.32-40.62-40.7-40.5-22.35.12-40.47,18.06-40.51,40.13-.04,23.07,17.91,41.3,40.65,41.28Z" />
        <path
            d="m923.39,219.38c5.06,2.92,9.76,5.81,14.62,8.39,9.88,5.24,20.4,8.46,31.58,9.22,6.5.44,12.77-.31,18.5-4.02,6.85-4.43,7.65-17.29-2.16-20.81-4.86-1.74-9.92-3.01-14.97-4.18-10.12-2.34-20.23-4.58-29.86-8.67-15.86-6.73-25.02-18.27-26.58-35.58-1.42-15.74,1.63-30.35,11.18-43.24,8-10.8,19.05-17.28,31.45-21.79,15.61-5.67,31.74-6.48,48.09-5.28,14.91,1.1,29.31,4.48,43.17,10.08.67.27,1.34.57,2.31.99-7.05,13.61-14.03,27.09-20.92,40.38-5.45-2.07-10.57-4.37-15.9-5.96-7.79-2.32-15.81-3.66-23.93-2.15-3.08.57-6.22,1.76-8.89,3.39-4.62,2.81-6.11,8.45-4.15,13.51,1.16,3,3.81,4.35,6.53,5.24,4.3,1.41,8.7,2.54,13.1,3.58,9.86,2.32,19.85,4.15,29.19,8.33,21.83,9.77,32.14,27.5,30.35,51.51-1.24,16.68-8.05,30.63-20.73,41.55-10.16,8.74-22.18,13.93-35.14,16.79-28.84,6.35-56.73,3.18-83.58-9.04-4.87-2.22-9.56-4.82-14.33-7.25-.5-.26-.96-.6-1.64-1.04,7.58-14.67,15.13-29.28,22.71-43.95Z" />
        <path
            d="m1443.54,203.97h-118.09c.86,4.44,1.39,8.67,2.52,12.73,3.53,12.63,10.71,22.65,23.04,27.72,13.74,5.65,27.67,5.56,40.54-2.67,6.95-4.44,11.78-11.23,16.53-17.91,1.76-2.47,3.44-5.01,5.24-7.64,10.72,5.98,21.29,11.87,32.34,18.03-3.73,5.31-7.19,10.6-11.02,15.62-9.67,12.68-21.7,22.36-36.95,27.53-13.42,4.55-27.28,5.39-41.32,4.01-19.81-1.95-36.59-10.01-49.87-24.95-9.72-10.94-15.6-23.8-18.33-38.07-3.56-18.58-3.37-37.1,2.13-55.31,5.87-19.44,16.94-35.09,34.82-45.35,12.64-7.26,26.47-9.84,40.91-9.76,12.69.07,25.01,2.04,36.47,7.73,18.29,9.09,29.97,23.88,36.31,43.03,4.78,14.45,5.65,29.39,5.03,44.48,0,.15-.11.3-.31.79Zm-39.03-31.33c-4.21-18.87-17.14-30.45-38.21-30.39-20.95.06-34.51,14.93-37.73,30.39h75.95Z" />
        <path
            d="m1677.7,281.99c-35.7-.69-62.05-16.84-78.49-48.47-7.55-14.52-9.65-30.44-8.29-46.65,2.76-32.8,20.27-55.75,48.94-70.54,15.06-7.77,31.47-9.6,48.2-7.94,28.4,2.81,50.15,16.71,65.64,40.41,9.01,13.77,12.55,29.21,12.81,45.54.61,38.85-23.79,72.55-60.92,83.74-9.05,2.73-18.36,4.02-27.89,3.91Zm49.98-88.66c-.3-2.59-.56-7.31-1.43-11.91-2.72-14.44-10.08-25.87-23.04-33.2-9.42-5.33-19.69-6.69-30.39-5.66-17.08,1.65-29.86,10.05-37.29,25.32-8.9,18.29-8.24,37.13.25,55.4,5.37,11.54,14.85,18.98,27.1,22.63,7.53,2.24,15.26,2.58,23.05,1.63,13.01-1.58,23.67-7.32,31.55-17.89,7.57-10.16,10.02-21.86,10.2-36.33Z" />
        <path
            d="m1586.5,117.82c-5.82,11.59-11.57,23.06-17.07,34.01-5.07-2.13-9.81-4.81-14.89-6.13-15.21-3.94-28.73,3.73-33.87,18.58-2.64,7.64-3.83,15.54-3.87,23.56-.11,28.7-.06,57.4-.07,86.1,0,.98,0,1.97,0,3.14h-37.96V112.66h37.9v14.55c9.62-9.61,19.24-18,33.01-19.13,13.38-1.09,25.36,2.77,36.81,9.75Z" />
    </g>
    <g transform="matrix(0.281694, 0, 0, 0.281694, -2.409247, 7.69973)" style="">
        <path class="cls-1"
            d="m193.19,388.34L25.04,291.25V97.07L193.19,0l168.17,97.07v194.18l-168.17,97.09Zm-136.04-115.62l136.04,78.56,136.05-78.56V115.61L193.19,37.07,57.15,115.61v157.11Z"
            style="fill: rgb(30, 64, 142);" />
        <path class="cls-1"
            d="m246.08,96.81l-109.88,2.38-52.89,96.37,57.01,93.99,109.88-2.38,52.87-96.37-57-93.99Zm-34.35,95.96l26.13-47.59,28.16,46.43-26.11,47.6-28.17-46.44Zm-56.31-61.87l54.28-1.17-26.11,47.6-54.29,1.17,26.12-47.6Zm-25.42,79.71l54.28-1.17,28.17,46.42-54.28,1.17-28.17-46.42Z"
            style="fill: rgb(30, 64, 142);" />
    </g>
</svg>